<svg version="1.1" id="Layer_1" xmlns="http://www.w3.org/2000/svg" xmlns:xlink="http://www.w3.org/1999/xlink" x="0px" y="0px" viewBox="0 0 361 285">
<style type="text/css">
	.st0{fill:#f9f9f9;}
	.st1{fill:#1e262d;}
	.st2{opacity:0.5;fill:#f9f9f9;}
	.st3{opacity:0.6;fill:#f9f9f9;}
	.st4{opacity:0.8;fill:#f9f9f9;}
	.st5{fill:#f9f9f9;}

</style>
<g>
	<path class="st0" d="M73,272.4c0-12.6,0-25.1,0-37.7c72,0,143.9,0,216,0c0,12.5,0,25.1,0,37.7C217.1,272.4,145.1,272.4,73,272.4z
		 M78.5,239.6c0.1,0.4,0.1,0.6,0.1,0.7c2.9,8.8,5.9,17.6,8.7,26.5c0.3,1,0.9,0.9,1.6,0.9c0.8,0,1.5,0.2,1.9-1
		c1.1-3.4,2.4-6.8,3.6-10.2c0.2-0.5,0.4-1.1,0.7-1.9c0.2,0.6,0.4,0.9,0.5,1.2c1.3,3.5,2.6,7,3.8,10.6c0.4,1.2,1.1,1.2,2.1,1.3
		c1,0,1.4-0.4,1.7-1.3c2.8-8.5,5.6-17,8.4-25.6c0.1-0.4,0.2-0.7,0.3-1.3c-1,0-1.9,0.1-2.7,0c-1.1-0.1-1.6,0.3-1.9,1.3
		c-1.9,5.9-3.8,11.8-5.8,17.7c-0.1,0.2-0.2,0.4-0.4,0.8c-1.4-4-2.8-7.7-3.9-11.5c-0.4-1.2-1.2-1.1-2.1-1.1c-0.9,0-1.7,0-2,1.2
		c-0.6,2-1.4,4-2.1,6c-0.6,1.8-1.2,3.5-2,5.5c-0.3-0.8-0.5-1.3-0.6-1.8c-1.9-5.7-3.7-11.4-5.6-17.1c-0.1-0.5-0.6-1.1-1-1.1
		C80.8,239.5,79.7,239.6,78.5,239.6z M237.7,248.8c0.1,0,0.2,0,0.3-0.1c2,3.1,4.1,6.1,6.1,9.2c1,1.4,2.6,1.5,3.5,0
		c1.9-2.9,3.8-5.8,5.8-8.6c0.1-0.2,0.4-0.4,0.8-0.9c0,6.6,0,12.8,0,19.1c1.3,0,2.5,0,3.8,0c0-9.2,0-18.4,0-27.5
		c-2-0.5-3.5-0.3-4.4,1.8c-0.3,0.7-0.8,1.3-1.3,1.9c-2.1,3.1-4.2,6.2-6.4,9.5c-0.3-0.4-0.6-0.8-0.8-1.1c-2.3-3.5-4.7-6.9-7-10.4
		c-1.4-2-1.7-2.2-4.3-1.6c0,9.2,0,18.3,0,27.4c1.3,0,2.6,0,3.9,0C237.7,261.2,237.7,255,237.7,248.8z M153.9,267.6
		c0-0.6,0-1.1,0-1.6c0-6,0.2-12.1-0.1-18.1c-0.1-3.7,3.5-5.2,6-4.3c1.9,0.6,2.9,2,2.8,3.8c-0.1,1.8-1.4,3.3-3.2,3.6
		c-0.6,0.1-1.2,0.2-1.8,0.2c0,1.2,0,2.3,0,3.4c5,0.9,6.7,2.1,6.7,4.9c0,0.9-0.4,2-0.9,2.7c-1.4,2-3.6,2.2-5.7,2.2c0,1.2,0,2.2,0,3.2
		c3.9,0.9,8.5-1,10.1-4.2c0.9-1.7,1-3.5,0.7-5.3c-0.4-2.6-2.1-4.4-4.5-5.6c0.3-0.3,0.5-0.5,0.7-0.7c3.5-3.6,2.6-9.2-2-11.4
		c-2.2-1-4.6-1.2-7-0.6c-4,1-6.1,3.6-6.1,7.8c0,6.1,0,12.3,0,18.4c0,0.5,0,1,0.1,1.5C151.1,267.6,152.4,267.6,153.9,267.6z
		 M268,259.6c-1,0-2,0-2.9,0c-0.8,0-1.2,0.3-0.9,1.1c0.6,1.4,1,3,2,4c3.9,4.4,12.1,4.2,16.1-0.2c2.8-3.1,2.9-9.4-2.5-11.5
		c-1.7-0.6-3.6-0.9-5.3-1.3c-1.4-0.3-2.9-0.4-4.2-0.9c-1.9-0.7-2.5-3.2-1.3-4.9c2.2-3.2,8.5-2.9,10.3,0.5c0.2,0.3,0.5,0.7,0.8,0.7
		c1.1,0,2.2-0.1,3.4-0.1c-0.2-1.8-0.8-3.2-2-4.4c-2.8-3-8-3.8-12.1-1.9c-3.5,1.6-5.2,4.5-4.9,8.2c0.3,3.4,2.4,5.5,6.3,6.3
		c2.2,0.5,4.5,0.7,6.7,1.1c1.2,0.2,2.2,0.8,2.5,2.2c0.3,1.4-0.1,2.6-1,3.6C276.2,264.8,269,264.6,268,259.6z M207.6,259.6
		c0,2.5,1,4.3,2.8,5.8c3.9,3.2,10.3,3.2,14.2,0c2.4-1.9,3.3-4.4,2.8-7.4c-0.5-2.9-2.4-4.4-5-5.3c-0.9-0.3-1.8-0.5-2.7-0.7
		c-1.6-0.3-3.3-0.4-4.9-0.8c-2-0.4-2.9-1.4-3-2.9c-0.1-1.8,0.6-3.1,2.4-4c2.7-1.2,7-1.2,8.9,2.8c1.2-0.1,2.4-0.1,3.7-0.2
		c-0.3-2.5-1.4-4.2-3.2-5.5c-3.8-2.8-10.1-2.3-13.6,1c-3.3,3.1-3.5,10.5,2.7,12.4c0.9,0.3,1.8,0.5,2.7,0.6c1.9,0.3,3.8,0.5,5.7,1
		c2.6,0.7,3.2,3.5,1.4,5.4c-2.8,3-10.1,2.8-11.1-2.2C210.2,259.6,209,259.6,207.6,259.6z M133.6,261c-1.2,0-2.1-0.1-3.1,0
		c-0.5,0.1-1.1,0.3-1.4,0.7c-1.6,2-3.7,2.9-6.3,2.8c-3.6-0.2-6.6-3.3-6.5-6.6c0.5,0,1,0,1.4,0c5,0,10,0,14.9,0
		c1.2,0,1.5-0.4,1.5-1.6c-0.3-4.4-2.1-7.9-6.3-9.5c-4.4-1.7-8.6-1.3-12.2,1.9c-3.6,3.2-4.4,9.2-2.1,13.6c2.1,4.2,7.1,6.4,11.9,5.5
		C129.3,267.1,132,265,133.6,261z M177.5,257.9c0.6,0,1.1,0,1.5,0c5,0,10-0.1,14.9,0c1.3,0,1.6-0.5,1.5-1.7
		c-0.3-4.4-2.2-7.8-6.4-9.5c-4.4-1.7-8.7-1.2-12.3,2.1c-3.7,3.4-4.2,9.9-1.4,14.4c2.7,4.2,8.5,5.9,13.4,4c2.9-1.1,4.9-3.1,6.1-6.2
		c-2,0-3.7-0.5-5.2,1.4c-1.9,2.3-4.7,2.6-7.5,1.5C179.4,262.9,177.8,261,177.5,257.9z M139.8,246c0,7.3,0,14.4,0,21.5
		c1.3,0,2.5,0,3.7,0c0-7.2,0-14.3,0-21.5C142.3,246,141.1,246,139.8,246z M141.7,238.4c-1.4,0-2.4,1.1-2.4,2.4
		c0.1,1.3,1.1,2.2,2.4,2.2c1.4,0,2.4-1,2.3-2.4C144.1,239.3,143,238.4,141.7,238.4z"/>
	<path class="st1" d="M78.5,239.6c1.2,0,2.3-0.1,3.4,0.1c0.4,0.1,0.9,0.7,1,1.1c1.9,5.7,3.8,11.4,5.6,17.1c0.2,0.5,0.3,1,0.6,1.8
		c0.7-2,1.3-3.8,2-5.5c0.7-2,1.5-4,2.1-6c0.3-1.2,1.1-1.2,2-1.2c0.9,0,1.6-0.1,2.1,1.1c1.2,3.8,2.6,7.5,3.9,11.5
		c0.2-0.4,0.3-0.6,0.4-0.8c1.9-5.9,3.9-11.8,5.8-17.7c0.3-1.1,0.8-1.5,1.9-1.3c0.8,0.1,1.7,0,2.7,0c-0.1,0.5-0.2,0.9-0.3,1.3
		c-2.8,8.5-5.6,17-8.4,25.6c-0.3,0.9-0.7,1.3-1.7,1.3c-1,0-1.7,0-2.1-1.3c-1.2-3.6-2.5-7.1-3.8-10.6c-0.1-0.3-0.3-0.6-0.5-1.2
		c-0.3,0.8-0.5,1.3-0.7,1.9c-1.2,3.4-2.5,6.8-3.6,10.2c-0.4,1.1-1.1,1-1.9,1c-0.7,0-1.3,0.1-1.6-0.9c-2.9-8.8-5.8-17.6-8.7-26.5
		C78.6,240.2,78.6,240.1,78.5,239.6z"/>
	<path class="st1" d="M237.7,248.8c0,6.2,0,12.4,0,18.7c-1.3,0-2.6,0-3.9,0c0-9.1,0-18.3,0-27.4c2.6-0.5,3-0.4,4.3,1.6
		c2.3,3.5,4.7,6.9,7,10.4c0.2,0.3,0.5,0.6,0.8,1.1c2.2-3.2,4.3-6.4,6.4-9.5c0.4-0.6,1-1.2,1.3-1.9c0.9-2,2.4-2.2,4.4-1.8
		c0,9.1,0,18.3,0,27.5c-1.3,0-2.5,0-3.8,0c0-6.3,0-12.6,0-19.1c-0.4,0.5-0.6,0.6-0.8,0.9c-1.9,2.9-3.8,5.8-5.8,8.6
		c-1,1.4-2.6,1.4-3.5,0c-2-3.1-4.1-6.1-6.1-9.2C237.8,248.8,237.8,248.8,237.7,248.8z"/>
	<path class="st1" d="M153.9,267.6c-1.5,0-2.8,0-4.2,0c0-0.5-0.1-1-0.1-1.5c0-6.1,0-12.3,0-18.4c0-4.1,2-6.8,6.1-7.8
		c2.4-0.6,4.7-0.4,7,0.6c4.6,2.2,5.6,7.7,2,11.4c-0.2,0.2-0.4,0.4-0.7,0.7c2.4,1.2,4.1,3,4.5,5.6c0.3,1.8,0.1,3.6-0.7,5.3
		c-1.6,3.1-6.2,5.1-10.1,4.2c0-1,0-2.1,0-3.2c2.2,0,4.3-0.2,5.7-2.2c0.5-0.8,0.9-1.8,0.9-2.7c0.1-2.8-1.7-4-6.7-4.9
		c0-1.1,0-2.2,0-3.4c0.6-0.1,1.2-0.1,1.8-0.2c1.9-0.4,3.1-1.8,3.2-3.6c0.1-1.8-1-3.1-2.8-3.8c-2.5-0.8-6.1,0.6-6,4.3
		c0.2,6,0.1,12.1,0.1,18.1C153.9,266.5,153.9,266.9,153.9,267.6z"/>
	<path class="st1" d="M268,259.6c1,5,8.2,5.3,10.9,2.5c1-1,1.4-2.2,1-3.6c-0.3-1.3-1.4-1.9-2.5-2.2c-2.2-0.4-4.5-0.6-6.7-1.1
		c-3.9-0.8-6-3-6.3-6.3c-0.3-3.7,1.4-6.6,4.9-8.2c4.1-1.9,9.3-1.1,12.1,1.9c1.1,1.2,1.8,2.6,2,4.4c-1.2,0.1-2.3,0.2-3.4,0.1
		c-0.3,0-0.6-0.4-0.8-0.7c-1.9-3.4-8.1-3.7-10.3-0.5c-1.2,1.7-0.6,4.2,1.3,4.9c1.3,0.5,2.8,0.6,4.2,0.9c1.8,0.4,3.6,0.6,5.3,1.3
		c5.5,2.1,5.4,8.4,2.5,11.5c-4,4.4-12.1,4.6-16.1,0.2c-1-1.1-1.4-2.6-2-4c-0.3-0.7,0.1-1.1,0.9-1.1C266,259.6,267,259.6,268,259.6z"
		/>
	<path class="st1" d="M207.6,259.6c1.4,0,2.6,0,3.8,0c1,5,8.3,5.3,11.1,2.2c1.8-2,1.1-4.7-1.4-5.4c-1.9-0.5-3.8-0.6-5.7-1
		c-0.9-0.2-1.9-0.4-2.7-0.6c-6.2-1.9-5.9-9.3-2.7-12.4c3.5-3.2,9.8-3.8,13.6-1c1.8,1.3,2.9,3,3.2,5.5c-1.3,0.1-2.5,0.1-3.7,0.2
		c-1.9-4-6.2-4-8.9-2.8c-1.8,0.8-2.6,2.1-2.4,4c0.1,1.6,1,2.5,3,2.9c1.6,0.4,3.3,0.5,4.9,0.8c0.9,0.2,1.9,0.4,2.7,0.7
		c2.6,0.9,4.5,2.4,5,5.3c0.5,3-0.5,5.5-2.8,7.4c-3.9,3.2-10.3,3.2-14.2,0C208.6,264,207.6,262.1,207.6,259.6z"/>
	<path class="st1" d="M133.6,261c-1.6,4-4.3,6.1-8.2,6.8c-4.8,1-9.7-1.3-11.9-5.5c-2.3-4.4-1.4-10.4,2.1-13.6
		c3.6-3.2,7.8-3.7,12.2-1.9c4.2,1.7,6.1,5.1,6.3,9.5c0.1,1.1-0.2,1.6-1.5,1.6c-5-0.1-10,0-14.9,0c-0.5,0-1,0-1.4,0
		c-0.2,3.3,2.9,6.4,6.5,6.6c2.5,0.1,4.6-0.7,6.3-2.8c0.3-0.4,0.9-0.7,1.4-0.7C131.5,260.9,132.4,261,133.6,261z M116.6,254.5
		c4.5,0,8.9,0,13.3,0c-0.3-3-3-5.1-6.4-5.2C119.9,249.2,117,251.4,116.6,254.5z"/>
	<path class="st1" d="M177.5,257.9c0.3,3.1,1.9,5.1,4.6,6.1c2.8,1.1,5.6,0.8,7.5-1.5c1.5-1.9,3.2-1.4,5.2-1.4
		c-1.2,3.1-3.2,5.1-6.1,6.2c-4.9,1.9-10.7,0.2-13.4-4c-2.8-4.4-2.2-11,1.4-14.4c3.6-3.3,7.9-3.8,12.3-2.1c4.2,1.6,6.1,5,6.4,9.5
		c0.1,1.2-0.2,1.7-1.5,1.7c-5-0.1-10,0-14.9,0C178.6,257.9,178.1,257.9,177.5,257.9z M177.9,254.5c4.5,0,9,0,13.4,0
		c-0.7-3.4-3.4-5.3-6.9-5.2C181,249.4,178.3,251.5,177.9,254.5z"/>
	<path class="st1" d="M139.8,246c1.3,0,2.5,0,3.7,0c0,7.2,0,14.4,0,21.5c-1.3,0-2.5,0-3.7,0C139.8,260.4,139.8,253.3,139.8,246z"/>
	<path class="st1" d="M141.7,238.4c1.4,0,2.4,0.9,2.4,2.2c0,1.4-0.9,2.4-2.3,2.4c-1.4,0-2.4-0.9-2.4-2.2
		C139.3,239.5,140.3,238.5,141.7,238.4z"/>
	<path class="st0" d="M116.6,254.5c0.4-3.1,3.3-5.3,6.9-5.2c3.5,0.1,6.1,2.2,6.4,5.2C125.5,254.5,121.1,254.5,116.6,254.5z"/>
	<path class="st0" d="M177.9,254.5c0.5-3,3.1-5.1,6.5-5.2c3.6-0.1,6.2,1.8,6.9,5.2C186.8,254.5,182.4,254.5,177.9,254.5z"/>
</g>
<g>
	<g>
		<g>
			<path class="st2" d="M6.8,78.6c5.8,2.4,11.5,3.5,17.3,3.8c14.1,0.8,27-3.1,39.2-10.1c8.6-5,17.8-8.5,27.8-9.3
				c13.6-1.1,25.6,3,36.1,11.6c3.3,2.7,6.2,5.9,9.2,8.9c0.3,0.3,0.3,0.8,0.5,1.2c-0.4,0-0.9,0.1-1.3,0c-16.4-5.3-32.1-3.9-47.1,4.8
				c-7.2,4.2-14.7,7.7-22.7,10.2c-16.7,5-31.9,2.2-45.7-8.3c-4.7-3.5-8.8-7.6-12.8-12C7.2,79.3,7.1,79.1,6.8,78.6z"/>
			<path class="st3" d="M37.6,34.7c0.8,0.8,1.4,1.3,2,1.9c7.8,6.8,16.9,10.6,27.1,12c5.8,0.8,11.6,0.6,17.3,0
				c7.6-0.8,15.1-0.4,22.4,1.8c12.2,3.7,20.9,11.5,26.4,22.8c1.6,3.2,2.6,6.6,3.9,9.9c0.1,0.2,0.1,0.5,0.2,1
				c-0.4-0.3-0.7-0.5-0.9-0.7c-10.9-10-23.7-14.5-38.5-13c-8.1,0.8-16.2,1.2-24.2-0.2c-13.5-2.3-23.5-9.6-30-21.6
				c-2.2-4.1-3.8-8.6-5.6-13C37.6,35.4,37.6,35.2,37.6,34.7z"/>
			<path class="st4" d="M135.5,81.2c-0.2-0.6-0.5-1.1-0.7-1.7c-4.6-10.3-12.2-17.4-22.9-21.1c-5.6-1.9-11-4.3-15.9-7.6
				c-10.5-7.1-15-17.2-14.6-29.6c0.1-2.1,0.3-4.3,0.4-6.4c0-0.4,0.1-0.7,0.2-1.3c0.3,0.3,0.4,0.4,0.4,0.6
				c3.7,9.7,10.6,16.4,19.7,21.1c2.6,1.4,5.5,2.4,8.3,3.5c8.4,3.2,15.8,7.7,20.8,15.4c4.6,7.1,5.9,14.9,5.1,23.2
				c-0.1,1.3-0.3,2.7-0.5,4C135.8,81.2,135.7,81.2,135.5,81.2z"/>
		</g>
		<path class="st5" d="M224.4,216.4c-1.8,1.3-3.3,2.3-4.8,3.2c-0.3,0.2-1-0.1-1.4-0.4c-6.8-4.7-13.2-10-19-16
			c-12.2-12.7-20.9-27.4-25.2-44.6c-2.6-10.3-3.3-20.7-2.7-31.3c0.6-10.1,4-19.3,7.7-28.6c2.9-7.2,5.8-14.4,8.3-21.7
			c1.9-5.3,2.5-10.8,0.7-16.4c-1.2-3.7-3.3-6.9-5.9-9.7c-2.1-2.3-3.8-4.7-4.5-7.8c-0.9-4,0-7.9,1.8-11.5c0.4-0.8,0.9-1.6,1.3-2.3
			c2.3-4.2,4.4-6.4,10.2-8.4c10.3-3.5,20.8-4.8,31.6-4.3c10.9,0.6,21.3,3,31.2,7.7c5.5,2.6,10.4,6,14.4,10.6c3.6,4.2,5.8,9,5.7,14.7
			c0,0.9,0.3,1.3,1.2,1.4c4.1,0.7,7.8,2.4,11.4,4.4c0.7,0.4,1.9,0.7,1.5,1.7c-0.2,0.5-1.2,0.9-1.9,1c-9.2,1.4-18.2,3.3-27.1,6.2
			c-12.4,4.1-23.9,10-33.8,18.7c-11.1,9.8-18.8,21.7-23.3,35.8c-5.4,16.9-7,34.1-3.7,51.6c2.9,15.7,10.3,29.1,21.1,40.7
			C220.7,213.2,222.5,214.6,224.4,216.4z"/>
		<path class="st0" d="M187.2,22.8c-0.9,1.1-1.7,2-2.4,2.9c-2.4,3.2-4.4,6.6-5.2,10.5c-1,4.6,0,8.8,3,12.4c0.7,0.9,1.5,1.7,2.2,2.5
			c5.7,6.3,7.2,13.5,5.4,21.6c-1.6,7.1-4.5,13.8-7.2,20.5c-1.9,4.8-3.9,9.6-5.7,14.4c-3.3,8.6-4.3,17.5-4.3,26.6
			c0,16.8,4.1,32.6,12.4,47.3c7.7,13.5,18.1,24.6,30.4,33.9c1.7,1.3,3.4,2.5,5.3,3.9c-1.4,0.7-2.6,1.4-4,1.9
			c-0.5,0.2-1.2-0.1-1.7-0.3c-5.2-2.8-10.4-5.5-15.5-8.5c-14.4-8.2-27.7-17.8-39.2-29.8c-21.6-22.6-32.2-49.6-30.7-81
			c1-20.7,7.6-39.3,21.7-54.8c9.6-10.7,22.7-19.3,34.6-24C186.6,22.9,186.8,22.9,187.2,22.8z"/>
	</g>
	<g>
		<path class="st0" d="M287.7,210.5c1.6,2.8,0.7,6.4-2,8.2c-1.2,0.7-2.6,1.1-4.2,0.9c-3.2-0.3-6.3-1.2-9-2.9
			c-2.8-1.7-5.5-3.5-7.8-5.7c-5.2-4.9-11-6.5-17.7-3.9c-3.5,1.4-7,3-10.2,4.9c-12.6,7.5-25.9,13.2-40.5,15.8
			c-10.4,1.8-20.8,1.5-31.1-0.1c-12.2-1.9-24.3-4.6-35.7-9.4c-7.7-3.3-14.9-7.4-20.9-13.5c-3.6-3.6-6.4-7.7-8.3-12.5
			c-0.2-0.4-0.4-0.9-0.5-1.4c-0.3-1.4-0.5-2.9,0.6-4c1.1-1.1,2.6-0.8,3.9-0.3c2.9,1,5.3,2.6,7.4,4.8c5.8,6.1,12,11.7,18.7,16.7
			c11.4,8.4,24,13.2,38.1,14.5c23.4,2.2,45.4-1.7,66.2-12.7c6.2-3.3,12.5-6.2,19.2-8.5c10.5-3.6,20.1-1.5,29.2,4.4
			c1.6,1.1,3,2.6,4.2,4.2C287.5,210.1,287.6,210.3,287.7,210.5z"/>
		<path class="st5" d="M108.3,210.9c-0.8-0.4-1.6-0.8-2.5-1.2c-6-2.9-12.2-3.2-18.6-1.3c-2.1,0.6-4.2,1-6.4,1.4
			c-1.1,0.2-2.3,0.3-3.5,0.2c-1.8-0.2-3.3-1-4-2.7c-0.7-1.7-0.1-3.1,1-4.5c1.9-2.3,4.4-3.6,7.3-3.6c2.6,0,5.3,0.2,7.8,0.9
			C96.6,202,102.6,206.2,108.3,210.9z"/>
	</g>
</g>
</svg>
