<svg version="1.1" id="Layer_1" xmlns="http://www.w3.org/2000/svg" xmlns:xlink="http://www.w3.org/1999/xlink" x="0px" y="0px"
	 viewBox="0 0 435.3 432.9" style="enable-background:new 0 0 435.3 432.9;" xml:space="preserve">
<style type="text/css">
	.st0{fill:#A7ABC3;}
	.st1{fill:none;stroke:url(#Oval-2_1_);stroke-width:8;}
	.st2{fill:#A7ABC3;stroke:#A7ABC3;stroke-width:5;stroke-miterlimit:10;}
</style>
<g>
	<path class="st0" d="M216.7,9c-114.9,0-208,93.1-208,208s93.1,208,208,208s208-93.1,208-208S331.6,9,216.7,9z M397.9,217
		c0,99.6-80.6,181.2-181.2,181.2c-99.6,0-181.2-80.6-181.2-181.2c0-99.6,80.6-181.2,181.2-181.2C316.3,35.8,397.9,116.4,397.9,217z"
		/>
</g>
<g class="user-svg">
	<path class="st0" d="M257.9,231.6c-13,0-19.4,7.2-40.9,7.2s-27.7-7.2-40.9-7.2c-33.8,0-61.3,27.4-61.3,61.3v19
	c0,12,9.9,21.9,21.9,21.9h160.5c12,0,21.9-9.9,21.9-21.9v-19C319.2,259,291.7,231.6,257.9,231.6z M304.6,311.8
	c0,4.1-3.3,7.2-7.2,7.2H136.7c-4.1,0-7.2-3.3-7.2-7.2v-19c0-25.8,20.9-46.7,46.7-46.7c9,0,17.8,7.2,40.9,7.2s31.9-7.2,40.9-7.2
	c25.8,0,46.7,20.9,46.7,46.7V311.8z M217,217c32.2,0,58.4-26.1,58.4-58.4s-26.1-58.4-58.4-58.4s-58.4,26.1-58.4,58.4
	S184.8,217,217,217z M217,114.8c24.1,0,43.8,19.7,43.8,43.8s-19.7,43.8-43.8,43.8s-43.8-19.7-43.8-43.8S193,114.8,217,114.8z"/>

</g>
</svg>
