<?xml version="1.0" encoding="utf-8"?>
<!-- Generator: Adobe Illustrator 22.1.0, SVG Export Plug-In . SVG Version: 6.00 Build 0)  -->
<svg version="1.1" id="Слой_1" xmlns="http://www.w3.org/2000/svg" xmlns:xlink="http://www.w3.org/1999/xlink" x="0px" y="0px"
	 viewBox="0 0 128 128" style="enable-background:new 0 0 128 128;" xml:space="preserve">
<style type="text/css">
	.st0{fill:#4A374F;}
</style>
<g>
	<g>
		<g>
			<g>
				<g>
					<path class="st0" d="M63.5,0c-35.4,0-64,28.6-64,64s28.6,64,64,64s64-28.6,64-64S98.9,0,63.5,0z M63.5,117.9
						C33.9,117.9,9.6,93.6,9.6,64s24.3-53.9,53.9-53.9s53.9,24.3,53.9,53.9S93.1,117.9,63.5,117.9z"/>
					<path class="st0" d="M90.4,62.7c0-0.3,0-0.3-0.3-0.7c-0.3-0.3-0.3-0.7-0.7-1c0,0,0-0.3-0.3-0.3l0,0c0,0,0,0,0-0.3L67.2,40.1
						c-2-2-5.4-1.7-7.1,0.3c-2,2-1.7,5.4,0.3,7.1l12.5,11.5h-31c-2.7,0-5.1,2.4-5.1,5.1s2.4,5.1,5.1,5.1h31L60.5,80.5
						c-2,2-2.4,5.1-0.3,7.1c1,1,2.4,1.7,3.7,1.7c1.3,0,2.4-0.3,3.4-1.3l21.9-20.2c0,0,0,0,0-0.3c0.3-0.3,0.7-0.7,0.7-1l0.3-0.3l0,0
						c0.3-0.7,0.3-1,0.3-1.7V64C90.4,63.3,90.4,63,90.4,62.7z"/>
				</g>
			</g>
		</g>
	</g>
</g>
</svg>
