<?xml version="1.0" encoding="utf-8"?>
<!-- Generator: Adobe Illustrator 22.1.0, SVG Export Plug-In . SVG Version: 6.00 Build 0)  -->
<svg version="1.1" id="Layer_1" xmlns="http://www.w3.org/2000/svg" xmlns:xlink="http://www.w3.org/1999/xlink" x="0px" y="0px"
	 viewBox="0 0 435.3 432.9" style="enable-background:new 0 0 435.3 432.9;" xml:space="preserve">
<style type="text/css">
	.st0{fill:#FD397A;}
</style>
<g>
	<path class="st0" d="M216.7,9c-114.9,0-208,93.1-208,208s93.1,208,208,208s208-93.1,208-208S331.6,9,216.7,9z M397.9,217
		c0,99.6-80.6,181.2-181.2,181.2c-99.6,0-181.2-80.6-181.2-181.2c0-99.6,80.6-181.2,181.2-181.2C316.3,35.8,397.9,116.4,397.9,217z"
		/>
</g>
<path class="st0" d="M243.2,216.5l58.5-58.5c3.4-3.4,3.4-8.9,0-12.3l-13.6-13.6c-3.4-3.4-8.9-3.4-12.3,0l-58.5,58.5l-58.5-58.5
	c-3.4-3.4-8.9-3.4-12.3,0l-13.6,13.6c-3.4,3.4-3.4,8.9,0,12.3l58.5,58.5L132.9,275c-3.4,3.4-3.4,8.9,0,12.3l13.6,13.6
	c3.4,3.4,8.9,3.4,12.3,0l58.5-58.5l58.5,58.5c3.4,3.4,8.9,3.4,12.3,0l13.6-13.6c3.4-3.4,3.4-8.9,0-12.3L243.2,216.5z"/>
</svg>
