<svg version="1.1" id="Layer_1" xmlns="http://www.w3.org/2000/svg" xmlns:xlink="http://www.w3.org/1999/xlink" x="0px" y="0px"
	 viewBox="0 0 435.3 432.9" style="enable-background:new 0 0 435.3 432.9;" xml:space="preserve">
	<style type="text/css">
		.st0{
			fill:#FD397A;
		}
	</style>

	<g class="circle">
				<path class="st0" d="M216.7,9c-114.9,0-208,93.1-208,208s93.1,208,208,208s208-93.1,208-208S331.6,9,216.7,9z M397.9,217
			c0,99.6-80.6,181.2-181.2,181.2c-99.6,0-181.2-80.6-181.2-181.2c0-99.6,80.6-181.2,181.2-181.2C316.3,35.8,397.9,116.4,397.9,217z"/>
	</g>
	<g class="trash">
	<path class="st0" d="M239.8,297.3h11.9c3.3,0,5.9-2.7,5.9-5.9v-107c0-3.3-2.7-5.9-5.9-5.9h-11.9c-3.3,0-5.9,2.7-5.9,5.9v107
	C233.9,294.6,236.5,297.3,239.8,297.3z M321,130.8h-40.8l-16.8-28.1c-4.3-7.2-12-11.5-20.4-11.5H193c-8.4,0-16.1,4.4-20.4,11.5
	l-16.9,28.1H115c-4.4,0-7.9,3.5-7.9,7.9v7.9c0,4.4,3.5,7.9,7.9,7.9h7.9V321c0,13.1,10.6,23.8,23.8,23.8l0,0h142.7
	c13.1,0,23.8-10.6,23.8-23.8l0,0V154.6h7.9c4.4,0,7.9-3.5,7.9-7.9v-7.9C329,134.4,325.4,130.8,321,130.8z M192.2,116.4
	c0.5-0.9,1.5-1.4,2.6-1.4h46.6c1,0,2,0.5,2.6,1.4l8.6,14.4h-69L192.2,116.4z M289.3,321H146.7V154.6h142.7V321z M184.3,297.3h11.9
	c3.3,0,5.9-2.7,5.9-5.9v-107c0-3.3-2.7-5.9-5.9-5.9h-11.9c-3.3,0-5.9,2.7-5.9,5.9v107C178.4,294.6,181,297.3,184.3,297.3z"/>

	</g>
</svg>
