<?xml version="1.0" encoding="utf-8"?>
<!-- Generator: Adobe Illustrator 22.1.0, SVG Export Plug-In . SVG Version: 6.00 Build 0)  -->
<svg version="1.1" id="Layer_1" xmlns="http://www.w3.org/2000/svg" xmlns:xlink="http://www.w3.org/1999/xlink" x="0px" y="0px"
	 viewBox="0 0 435.3 432.9" style="enable-background:new 0 0 435.3 432.9;" xml:space="preserve">
<style type="text/css">
	.st0{fill:#FFB822;}
</style>
<g>
	<path class="st0" d="M216.7,9c-114.9,0-208,93.1-208,208s93.1,208,208,208s208-93.1,208-208S331.6,9,216.7,9z M397.9,217
		c0,99.6-80.6,181.2-181.2,181.2c-99.6,0-181.2-80.6-181.2-181.2c0-99.6,80.6-181.2,181.2-181.2C316.3,35.8,397.9,116.4,397.9,217z"
		/>
</g>
<path class="st0" d="M319.1,136.9l-23.4-23.4c-11.5-11.5-30-11.5-41.5,0L116.5,250.4l-10.7,64.7c-1.2,7,4.9,13.1,12,12l64.7-10.7
	l136.9-137.8C330.9,167.2,331,148.7,319.1,136.9z M192.7,240.2c1.9,1.9,4.3,2.8,6.8,2.8c2.4,0,4.9-0.9,6.8-2.8l51.7-51.7l12.4,12.4
	l-73.5,73.9v-18H176V236h-18l73.9-73.5l12.4,12.4l-51.7,51.7C189,230.4,189,236.5,192.7,240.2L192.7,240.2z M141.3,303.8L129,291.6
	l5.3-32l8-7.9h18.1v20.8h20.8v18.1l-7.9,8L141.3,303.8z M305.9,165.1L305.9,165.1L305.9,165.1l-20.9,21l-38.2-38.2l21-20.9l0,0l0,0
	c4-4,10.4-4,14.4,0l23.4,23.4C309.9,154.7,309.9,161,305.9,165.1L305.9,165.1z"/>
</svg>
