<?xml version="1.0" encoding="utf-8"?>
<!-- Generator: Adobe Illustrator 22.1.0, SVG Export Plug-In . SVG Version: 6.00 Build 0)  -->
<svg version="1.1" id="Layer_1" xmlns="http://www.w3.org/2000/svg" xmlns:xlink="http://www.w3.org/1999/xlink" x="0px" y="0px"
	 viewBox="0 0 361 231.6" style="enable-background:new 0 0 361 231.6;" xml:space="preserve">
<style type="text/css">
	.st0{opacity:0.5;fill:#F9F9F9;enable-background:new    ;}
	.st1{opacity:0.6;fill:#F9F9F9;enable-background:new    ;}
	.st2{opacity:0.8;fill:#F9F9F9;enable-background:new    ;}
	.st3{fill:#F9F9F9;}
</style>
<g>
	<g>
		<g>
			<path class="st0" d="M6.8,78.6c5.8,2.4,11.5,3.5,17.3,3.8c14.1,0.8,27-3.1,39.2-10.1c8.6-5,17.8-8.5,27.8-9.3
				c13.6-1.1,25.6,3,36.1,11.6c3.3,2.7,6.2,5.9,9.2,8.9c0.3,0.3,0.3,0.8,0.5,1.2c-0.4,0-0.9,0.1-1.3,0c-16.4-5.3-32.1-3.9-47.1,4.8
				c-7.2,4.2-14.7,7.7-22.7,10.2c-16.7,5-31.9,2.2-45.7-8.3c-4.7-3.5-8.8-7.6-12.8-12C7.2,79.3,7.1,79.1,6.8,78.6z"/>
			<path class="st1" d="M37.6,34.7c0.8,0.8,1.4,1.3,2,1.9c7.8,6.8,16.9,10.6,27.1,12c5.8,0.8,11.6,0.6,17.3,0
				c7.6-0.8,15.1-0.4,22.4,1.8c12.2,3.7,20.9,11.5,26.4,22.8c1.6,3.2,2.6,6.6,3.9,9.9c0.1,0.2,0.1,0.5,0.2,1
				c-0.4-0.3-0.7-0.5-0.9-0.7c-10.9-10-23.7-14.5-38.5-13c-8.1,0.8-16.2,1.2-24.2-0.2c-13.5-2.3-23.5-9.6-30-21.6
				c-2.2-4.1-3.8-8.6-5.6-13C37.6,35.4,37.6,35.2,37.6,34.7z"/>
			<path class="st2" d="M135.5,81.2c-0.2-0.6-0.5-1.1-0.7-1.7c-4.6-10.3-12.2-17.4-22.9-21.1c-5.6-1.9-11-4.3-15.9-7.6
				c-10.5-7.1-15-17.2-14.6-29.6c0.1-2.1,0.3-4.3,0.4-6.4c0-0.4,0.1-0.7,0.2-1.3c0.3,0.3,0.4,0.4,0.4,0.6
				c3.7,9.7,10.6,16.4,19.7,21.1c2.6,1.4,5.5,2.4,8.3,3.5c8.4,3.2,15.8,7.7,20.8,15.4c4.6,7.1,5.9,14.9,5.1,23.2
				c-0.1,1.3-0.3,2.7-0.5,4C135.8,81.2,135.7,81.2,135.5,81.2z"/>
		</g>
		<path class="st3" d="M224.4,216.4c-1.8,1.3-3.3,2.3-4.8,3.2c-0.3,0.2-1-0.1-1.4-0.4c-6.8-4.7-13.2-10-19-16
			c-12.2-12.7-20.9-27.4-25.2-44.6c-2.6-10.3-3.3-20.7-2.7-31.3c0.6-10.1,4-19.3,7.7-28.6c2.9-7.2,5.8-14.4,8.3-21.7
			c1.9-5.3,2.5-10.8,0.7-16.4c-1.2-3.7-3.3-6.9-5.9-9.7c-2.1-2.3-3.8-4.7-4.5-7.8c-0.9-4,0-7.9,1.8-11.5c0.4-0.8,0.9-1.6,1.3-2.3
			c2.3-4.2,4.4-6.4,10.2-8.4c10.3-3.5,20.8-4.8,31.6-4.3c10.9,0.6,21.3,3,31.2,7.7c5.5,2.6,10.4,6,14.4,10.6c3.6,4.2,5.8,9,5.7,14.7
			c0,0.9,0.3,1.3,1.2,1.4c4.1,0.7,7.8,2.4,11.4,4.4c0.7,0.4,1.9,0.7,1.5,1.7c-0.2,0.5-1.2,0.9-1.9,1c-9.2,1.4-18.2,3.3-27.1,6.2
			c-12.4,4.1-23.9,10-33.8,18.7c-11.1,9.8-18.8,21.7-23.3,35.8c-5.4,16.9-7,34.1-3.7,51.6c2.9,15.7,10.3,29.1,21.1,40.7
			C220.7,213.2,222.5,214.6,224.4,216.4z"/>
		<path class="st3" d="M187.2,22.8c-0.9,1.1-1.7,2-2.4,2.9c-2.4,3.2-4.4,6.6-5.2,10.5c-1,4.6,0,8.8,3,12.4c0.7,0.9,1.5,1.7,2.2,2.5
			c5.7,6.3,7.2,13.5,5.4,21.6c-1.6,7.1-4.5,13.8-7.2,20.5c-1.9,4.8-3.9,9.6-5.7,14.4c-3.3,8.6-4.3,17.5-4.3,26.6
			c0,16.8,4.1,32.6,12.4,47.3c7.7,13.5,18.1,24.6,30.4,33.9c1.7,1.3,3.4,2.5,5.3,3.9c-1.4,0.7-2.6,1.4-4,1.9
			c-0.5,0.2-1.2-0.1-1.7-0.3c-5.2-2.8-10.4-5.5-15.5-8.5c-14.4-8.2-27.7-17.8-39.2-29.8c-21.6-22.6-32.2-49.6-30.7-81
			c1-20.7,7.6-39.3,21.7-54.8c9.6-10.7,22.7-19.3,34.6-24C186.6,22.9,186.8,22.9,187.2,22.8z"/>
	</g>
	<g>
		<path class="st3" d="M287.7,210.5c1.6,2.8,0.7,6.4-2,8.2c-1.2,0.7-2.6,1.1-4.2,0.9c-3.2-0.3-6.3-1.2-9-2.9
			c-2.8-1.7-5.5-3.5-7.8-5.7c-5.2-4.9-11-6.5-17.7-3.9c-3.5,1.4-7,3-10.2,4.9c-12.6,7.5-25.9,13.2-40.5,15.8
			c-10.4,1.8-20.8,1.5-31.1-0.1c-12.2-1.9-24.3-4.6-35.7-9.4c-7.7-3.3-14.9-7.4-20.9-13.5c-3.6-3.6-6.4-7.7-8.3-12.5
			c-0.2-0.4-0.4-0.9-0.5-1.4c-0.3-1.4-0.5-2.9,0.6-4s2.6-0.8,3.9-0.3c2.9,1,5.3,2.6,7.4,4.8c5.8,6.1,12,11.7,18.7,16.7
			c11.4,8.4,24,13.2,38.1,14.5c23.4,2.2,45.4-1.7,66.2-12.7c6.2-3.3,12.5-6.2,19.2-8.5c10.5-3.6,20.1-1.5,29.2,4.4
			c1.6,1.1,3,2.6,4.2,4.2C287.5,210.1,287.6,210.3,287.7,210.5z"/>
		<path class="st3" d="M108.3,210.9c-0.8-0.4-1.6-0.8-2.5-1.2c-6-2.9-12.2-3.2-18.6-1.3c-2.1,0.6-4.2,1-6.4,1.4
			c-1.1,0.2-2.3,0.3-3.5,0.2c-1.8-0.2-3.3-1-4-2.7s-0.1-3.1,1-4.5c1.9-2.3,4.4-3.6,7.3-3.6c2.6,0,5.3,0.2,7.8,0.9
			C96.6,202,102.6,206.2,108.3,210.9z"/>
	</g>
</g>
</svg>
