<?xml version="1.0" encoding="utf-8"?>
<!-- Generator: Adobe Illustrator 22.1.0, SVG Export Plug-In . SVG Version: 6.00 Build 0)  -->
<svg version="1.1" id="Layer_1" xmlns="http://www.w3.org/2000/svg" xmlns:xlink="http://www.w3.org/1999/xlink" x="0px" y="0px"
	 viewBox="0 0 435.3 432.9" style="enable-background:new 0 0 435.3 432.9;" xml:space="preserve">
<style type="text/css">
	.st0{fill:#1DC9B7;}
</style>
<g>
	<path class="st0" d="M216.7,9c-114.9,0-208,93.1-208,208s93.1,208,208,208s208-93.1,208-208S331.6,9,216.7,9z M397.9,217
		c0,99.6-80.6,181.2-181.2,181.2c-99.6,0-181.2-80.6-181.2-181.2c0-99.6,80.6-181.2,181.2-181.2C316.3,35.8,397.9,116.4,397.9,217z"
		/>
</g>
<path class="st0" d="M331.2,311.2l-52.7-52.7c-1-1-2.3-1.5-3.7-1.5h-5.7c13.7-15.8,21.9-36.4,21.9-59c0-49.8-40.4-90.2-90.2-90.2
	s-90.2,40.4-90.2,90.2s40.4,90.2,90.2,90.2c22.6,0,43.2-8.3,59-21.9v5.7c0,1.4,0.6,2.7,1.5,3.7l52.7,52.7c2,2,5.3,2,7.4,0l9.8-9.8
	C333.2,316.5,333.2,313.2,331.2,311.2z M200.9,267.4c-38.3,0-69.4-31.1-69.4-69.4s31.1-69.4,69.4-69.4s69.4,31.1,69.4,69.4
	S239.2,267.4,200.9,267.4z"/>
</svg>
