<?xml version="1.0" encoding="utf-8"?>
<!-- Generator: Adobe Illustrator 22.1.0, SVG Export Plug-In . SVG Version: 6.00 Build 0)  -->
<svg version="1.1" id="Layer_1" xmlns="http://www.w3.org/2000/svg" xmlns:xlink="http://www.w3.org/1999/xlink" x="0px"
     y="0px"
     viewBox="0 0 1024 743" style="enable-background:new 0 0 1024 743;" xml:space="preserve">
<style type="text/css">
	.st0{fill:#EDEDF3;}
	.st1{fill:#A7ABC3;}
	.st2{fill:#2786FB;}
	.st3{fill:#FEAC00;}
	.st4{fill:#363147;}
	.st5{fill:#424261;}
	.st6{fill:#E2E5EC;}
	.st7{fill:#FEDD56;}
	.st8{fill:#FD397A;}
	.st9{fill:#FFFFFF;}
	.st10{fill:#6C7293;}
	.st11{fill:#4AA2FF;}
	.st12{fill:#FFD2B0;}
	.st13{fill:#FFC183;}
	.st14{fill:#9C5B40;}
	.st15{fill:#9FC7FA;
    }
	.st16{fill:#13FFFF;}
	.st17{fill:#FF6AFF;}
<!--    .st77{-->
<!--         	transform-origin: top center;-->
<!--	        animation: swing 2s ease infinite;-->
<!--    }-->

<!--@keyframes swing {-->
<!--	20% { transform: rotate(3deg); }-->
<!--	40% { transform: rotate(-5deg); }-->
<!--	60% { transform: rotate(2deg); }-->
<!--	80% { transform: rotate(-1deg); }-->
<!--	100% { transform: rotate(0deg); }-->
<!--}-->
<!--    .st74{  animation: flash 500ms ease infinite alternate;-->
<!--}-->
<!--@keyframes flash {-->
<!--	from { opacity: 1; }-->
<!--	to { opacity: 0; }-->
<!--}-->
</style>
    <g>
	<rect x="87.5" y="142.5" class="st0" width="788.5" height="517.4"/>
        <ellipse class="st1" cx="282.3" cy="718.9" rx="90.4" ry="6.7"/>
        <ellipse class="st1" cx="600.2" cy="722.5" rx="90.4" ry="6.7"/>
        <ellipse class="st1" cx="908.5" cy="722.5" rx="90.4" ry="6.7"/>
        <g>
		<path class="st2"
              d="M254.3,597.9l3.7,4.3c0,0-8.8,7.7-8.4,8.6c0.4,0.8,15.4-6.7,16-7.7c0.5-1-5.3-8.3-5.3-8.3L254.3,597.9z"/>
            <g>
			<rect x="234.6" y="358.5" class="st3" width="9.1" height="360.5"/>
                <rect x="313.8" y="358.5" class="st3" width="9.1" height="360.5"/>
		</g>
            <rect x="241" y="685.5" class="st3" width="75.9" height="7.3"/>
            <rect x="241" y="647.3" class="st3" width="75.9" height="7.3"/>
            <rect x="241" y="610.4" class="st3" width="75.9" height="7.3"/>
            <rect x="241" y="572.8" class="st3" width="75.9" height="7.3"/>
            <rect x="241" y="535.2" class="st3" width="75.9" height="7.3"/>
            <rect x="241" y="497.6" class="st3" width="75.9" height="7.3"/>
            <rect x="241" y="459.9" class="st3" width="75.9" height="7.3"/>
            <rect x="241" y="422.3" class="st3" width="75.9" height="7.3"/>
            <rect x="241" y="384.7" class="st3" width="75.9" height="7.3"/>
	</g>
        <path class="st2"
              d="M298.4,636.1l3.3,4.7c0,0-9.5,6.8-9.2,7.7c0.3,0.9,16-5.2,16.7-6.1s-4.5-8.8-4.5-8.8L298.4,636.1z"/>
        <path class="st4" d="M335.5,488.4c0,0-0.6,28-19.4,43c-18.8,14.9-26.1,21.5-26.1,21.5l17.3,83.3l-8.2,2.6c0,0-32.7-45-33.9-81
		c-1.2-36,29.9-76.9,29.9-76.9L335.5,488.4z"/>
        <path class="st5" d="M271,489.5c0,0-58.3,16.4-64.6,39.1c-6.4,22.8,18.2,62.8,47.3,74.6l9.1-8.2c0,0-27.3-41-28.2-57.3
		c0,0,69.2,4.6,78.3-35.5C322,462.2,271,489.5,271,489.5z"/>
        <path class="st6" d="M866,59.3H97.8c-5.7,0-10.3,4.6-10.3,10.3v74h788.9v-74C876.3,63.9,871.7,59.3,866,59.3z"/>
        <circle class="st7 " cx="687" cy="103" r="13.4"/>
        <circle class="st2 st74" cx="750.1" cy="103" r="13.3"/>
        <circle class="st8" cx="813.2" cy="103" r="13.3"/>
        <path class="st9" d="M433,118.2H130.9c-6.5,0-11.8-5.3-11.8-11.8l0,0c0-6.5,5.3-11.8,11.8-11.8H433c6.5,0,11.8,5.3,11.8,11.8l0,0
		C444.9,112.9,439.6,118.2,433,118.2z"/>
        <path class="st1" d="M589.9,234.1v293.7c0,5.4,4.3,9.7,9.7,9.7h210.5c26-20.4,47.3-36.9,66.2-50.3V224.4H599.6
		C594.3,224.4,589.9,228.7,589.9,234.1z"/>
        <path class="st7" d="M898.2,515.3H621.5c-5.4,0-9.7-4.3-9.7-9.7V211.9c0-5.4,4.3-9.7,9.7-9.7h276.7c5.4,0,9.7,4.3,9.7,9.7v293.7
		C907.9,511,903.5,515.3,898.2,515.3z"/>
        <rect x="173.6" y="229.1" class="st10" width="256.7" height="21.8"/>
        <rect x="173.6" y="267.1" class="st10" width="256.7" height="21.8"/>
        <g>
		<path class="st11" d="M907.2,713l1.6,5.5c0,0-11.2,3.4-11.2,4.3s16.8,0.2,17.7-0.5s-1.4-9.8-1.4-9.8L907.2,713z"/>
            <path class="st11"
                  d="M950.3,691.9l4.3,3.7c0,0-7.5,9-7.1,9.7c0.5,0.8,14.3-9,14.6-10c0.4-1.1-6.5-7.4-6.5-7.4L950.3,691.9z"/>
            <path class="st4" d="M949.8,539.6c0,0,6.4,27.3-8.2,46.4c-14.6,19.1-20,27.3-20,27.3l37.3,76.5l-7.3,4.6c0,0-42.8-35.5-52.8-70.1
			c-10-34.6,10-81.9,10-81.9L949.8,539.6z"/>
            <path class="st5" d="M882.1,537.5c0,0-9.9,107.7,24.1,176.9h9.7c0,0-3.5-115,0.2-128.3c0,0,15.8-13.4,15.8-46.1
			S882.1,537.5,882.1,537.5z"/>
            <path class="st2" d="M865.7,531.1c0,0-23.1,9.7-55.8-15.8h47.9L865.7,531.1z"/>
            <path class="st12" d="M914.6,313.3c0,0-3.6-18.2-5.2-18.8c-1.5-0.6-1.5,17.6-1.5,17.6L914.6,313.3z"/>
            <g>
			<path class="st2"
                  d="M905.1,449.2c0,0,1.1-68.7,13.2-75.3c12.1-6.6,23.6,14.3,26.2,42.4C947,444.4,937.6,491.9,905.1,449.2z"/>
                <path class="st2" d="M907.9,380.3V312h7.3c0,0,18.2,40,18.2,72.8L907.9,380.3z"/>
		</g>
            <g>
			<g>
				<path class="st13" d="M895.1,387.6c0,0-9.7,23.7-2.4,35.2c9.1,12.1,24.3-1.2,24.3-1.2L895.1,387.6z"/>
                <path class="st5" d="M922.6,378.2c0,0,25.8,12.9,3.6,44.6c-18.2,26.1-39.1-10.9-30.9-34.6C903.5,364.5,922.6,378.2,922.6,378.2z
					"/>
			</g>
                <path class="st2" d="M896.4,430.4c0,0-27.3,6.4-51,85.6c0,0-2.7,13.7,11.8,16.4s26.4-18.2,26.4-18.2s-6.4,17.3-3.6,29.1
				c0,0,27,20.6,71.6-2.1c0,0,5.8-71.6-19.7-104.4C931.9,436.7,919.1,424,896.4,430.4z"/>
		</g>
            <path class="st12" d="M907.9,310.2c-0.4-0.2-5.5-6.1-4.9-7.6c0.6-1.5,3.5,1.8,3.5,1.8s2.9-1.1,3.6,1.7
			C910.9,308.9,910,311.3,907.9,310.2z"/>
	</g>
        <path class="st12" d="M300.5,259.9c0,0-3.6-18.2-5.2-18.8c-1.5-0.6-1.5,17.6-1.5,17.6L300.5,259.9z"/>
        <g>
		<path class="st2"
              d="M291,395.8c0,0,1.1-68.7,13.2-75.3c12.1-6.6,23.6,14.3,26.2,42.4C332.9,391,323.5,438.5,291,395.8z"/>
            <path class="st2" d="M293.8,326.9v-68.3h7.3c0,0,18.2,40,18.2,72.8L293.8,326.9z"/>
	</g>
        <path class="st12" d="M293.8,256.8c-0.4-0.2-5.5-6.1-4.9-7.6c0.6-1.5,3.5,1.8,3.5,1.8s2.9-1.1,3.6,1.7
		C296.8,255.5,295.9,257.9,293.8,256.8z"/>
        <g>
		<g>
			<path class="st11"
                  d="M613.9,713l-1.6,5.5c0,0,11.2,3.4,11.2,4.3s-16.8,0.2-17.8-0.5c-0.9-0.7,1.4-9.8,1.4-9.8L613.9,713z"/>
            <path class="st11"
                  d="M570.9,691.9l-4.3,3.7c0,0,7.5,9,7,9.7s-14.3-9-14.6-10c-0.4-1.1,6.5-7.4,6.5-7.4L570.9,691.9z"/>
            <path class="st4" d="M571.4,539.6c0,0-6.4,27.3,8.2,46.4c14.6,19.1,20,27.3,20,27.3l-37.3,76.5l7.3,4.6c0,0,42.8-35.5,52.8-70.1
				c10-34.6-10-81.9-10-81.9L571.4,539.6z"/>
            <path class="st5" d="M639.1,537.5c0,0,9.9,107.7-24.1,176.9h-9.7c0,0,3.5-115-0.1-128.3c0,0-15.8-13.4-15.8-46.1
				S639.1,537.5,639.1,537.5z"/>
            <path class="st2" d="M655.4,531.1c0,0,23.1,9.7,55.8-15.8h-47.9L655.4,531.1z"/>
            <g>
				<g>
					<path class="st13" d="M626,387.6c0,0,9.7,23.7,2.4,35.2c-9.1,12.1-24.3-1.2-24.3-1.2L626,387.6z"/>
                    <path class="st8" d="M598.6,378.2c0,0-25.8,12.9-3.6,44.6c18.2,26.1,39.1-10.9,30.9-34.6C617.7,364.5,598.6,378.2,598.6,378.2z
						"/>
				</g>
                <path class="st2" d="M624.8,430.4c0,0,27.3,6.4,51,85.6c0,0,2.7,13.7-11.8,16.4c-14.6,2.7-26.4-18.2-26.4-18.2
					s6.4,17.3,3.6,29.1c0,0-27,20.6-71.6-2.1c0,0-5.8-71.6,19.7-104.4C589.3,436.7,602,424,624.8,430.4z"/>
			</g>
		</g>
            <path class="st8" d="M598.6,378.2c0,0-18.4,3.9-22.6,27c-4.2,23.1,12.7,27.3,0.6,39.4c-12.1,12.1-30.9,14.6-27.9,34.6
			c3,20-10.3,20-5.5,34.6c4.9,14.6,40,32.8,55.2,6.7c15.2-26.1,0.6-42.5,10.9-57.6c10.3-15.2,15.2-20.6,13.3-33.4s7.9-26.7,3.6-37
			C622.1,382.1,608.4,374.8,598.6,378.2z"/>
	</g>
        <path class="st12" d="M231.3,415.8c0,0,1.2-16.1,3-16.7c1.8-0.6,0.6,12.1,0.6,12.1s5.2-4.2,5.5-2.4c0.3,1.8-1.8,3.9-1.8,3.9
		s1.5,2.1,0.9,4.6C238.9,419.7,231.3,415.8,231.3,415.8z"/>
        <path class="st2" d="M234.9,475.6c-1.8-1.2-12.7-21.8-4.2-61.3l9.7,1.2c0,0,14,29.7,11.5,47.9C249.5,481.6,241.6,479.8,234.9,475.6
		z"/>
        <g>
		
			<rect x="258.3" y="301.1" transform="matrix(0.1109 -0.9938 0.9938 0.1109 -187.4307 649.3632)" class="st10"
                  width="21.8" height="256.7"/>

            <rect x="138.4" y="424" transform="matrix(0.9784 -0.2066 0.2066 0.9784 -84.1007 64.4981)" class="st10"
                  width="256.7" height="21.8"/>
            <g>
			<path class="st12" d="M281,334.2c0,0-9.7,23.7-2.4,35.2c9.1,12.1,24.3-1.2,24.3-1.2L281,334.2z"/>
                <path class="st14" d="M308.5,324.8c0,0,25.8,12.9,3.6,44.6c-18.2,26.1-39.1-10.9-30.9-34.6C289.4,311.1,308.5,324.8,308.5,324.8z
				"/>
		</g>
            <path class="st2" d="M282.3,377c0,0-27.3,6.4-51,85.6c0,0-2.7,13.7,11.8,16.4c14.6,2.7,26.4-18.2,26.4-18.2s-6.4,17.3-3.6,29.1
			c0,0,27,20.6,71.6-2.1c0,0,5.8-71.6-19.7-104.4C317.8,383.3,305,370.6,282.3,377z"/>
	</g>
        <path class="st14"
              d="M316.8,334.2c0,0,0-15.8-11.5-21.2c-11.5-5.5-27.3-3-26.1,6.1C280.4,328.1,304.7,341.5,316.8,334.2z"/>
        <circle class="st15 " cx="46.2" cy="30.8" r="23.7"/>
        <circle class="st15" cx="392.1" cy="600.6" r="23.7"/>
        <circle class="st15" cx="28" cy="100" r="9.1"/>
        <circle class="st15" cx="357.5" cy="544.1" r="9.1"/>
        <circle class="st15" cx="985.6" cy="471.3" r="9.1"/>
        <circle class="st16" cx="946.7" cy="175.8" r="4.9"/>
        <circle class="st16 st77" cx="930.9" cy="263.2" r="4.9"/>
        <circle class="st17" cx="1000.1" cy="339.6" r="10.3"/>
        <circle class="st17" cx="113.6" cy="26.5" r="10.3"/>
</g>
</svg>
