<?xml version="1.0" encoding="utf-8"?>
<!-- Generator: Adobe Illustrator 22.1.0, SVG Export Plug-In . SVG Version: 6.00 Build 0)  -->
<svg version="1.1" id="Layer_1" xmlns="http://www.w3.org/2000/svg" xmlns:xlink="http://www.w3.org/1999/xlink" x="0px" y="0px"
	 viewBox="0 0 512 438.3" style="enable-background:new 0 0 512 438.3;" xml:space="preserve">
<style type="text/css">
	.st0{fill:none;stroke:#000000;stroke-width:7;stroke-linecap:round;stroke-miterlimit:10;}
	.st1{fill:none;stroke:#13161A;stroke-width:7;stroke-linecap:round;stroke-linejoin:round;}
	.st2{fill:#FFCF1F;stroke:#000000;stroke-width:7;stroke-miterlimit:10;}
	.st3{fill:#FFFFFF;stroke:#121617;stroke-width:2.13;stroke-linecap:round;stroke-linejoin:round;}
</style>
<g>
	<path class="st0" d="M79.5,423.8c0-97.4,79.1-176.5,176.5-176.5c97.5,0,176.5,79.1,176.5,176.5"/>
</g>
<line class="st1" x1="17" y1="425.8" x2="5" y2="425.8"/>
<line class="st1" x1="24.7" y1="425.7" x2="476.2" y2="425.7"/>
<line class="st1" x1="487.6" y1="425.7" x2="506" y2="425.7"/>
<path class="st2" d="M256,204c-52.7,0-95.6-42.8-95.6-95.6c0-52.7,42.8-95.6,95.6-95.6c52.8,0,95.6,42.8,95.6,95.6
	C351.6,161.2,308.8,204,256,204z"/>
<polygon class="st3" points="271.8,102.9 312.1,102.9 256.7,160.5 199.9,101.6 243.2,101.6 243.2,45.4 271.8,45.4 "/>
</svg>
